<svg xmlns="http://www.w3.org/2000/svg" width="27.787" height="27.122" viewBox="0 0 79.787 27.122">
<!-- <g id="Group_74692" data-name="Group 74692" transform="translate(4.778 2.051)"> -->
<g >
<path id="Path_85074" data-name="Path 85074" d="M17.564,6.025v15a1.993,1.993,0,0,1-1.992,1.992H1.992A1.992,1.992,0,0,1,0,21.028V1.992A1.992,1.992,0,0,1,1.992,0h8.84V4.034a1.992,1.992,0,0,0,1.992,1.992Z" fill="#FF0000"></path>
<path id="Path_85075" data-name="Path 85075" d="M167.094,6.045h-4.756a2,2,0,0,1-2-2V0" transform="translate(-149.53)" fill="#ff0"></path></g><g id="Group_67395" data-name="Group 67395" transform="translate(4.612 7.723)"><path id="Path_85076" data-name="Path 85076" d="M72.127,161.564l.3,1.125H70.762l0,.152,0,3.649v.573H68.45V158.93h2.312v2.634Z" transform="translate(-68.45 -155.93)" fill="#fff"></path>
<path id="Path_85077" data-name="Path 85077" d="M137.015,158.93v8.144l-2.312-.011v-.489l.01-3.885h-1.361l-.3-1.125h1.662V158.93Z" transform="translate(-128.672 -155.93)" fill="#fff"></path>
<path id="Path_85078" data-name="Path 85078" d="M70.762,114.67a2.312,2.312,0,0,1-2.312,2.312V114.67Z" transform="translate(-68.45 -114.67)" fill="#fff"></path>
<path id="Path_85079" data-name="Path 85079" d="M157.43,116.982a2.312,2.312,0,0,1,2.312-2.312v2.312Z" transform="translate(-151.4 -114.67)" fill="#fff"></path>
</g>
<!-- </g> -->

<!-- <path id="Path_100" data-name="Path 100" d="M328.431,114.67H336.6v1.751h-6.142v4.146h5.624v1.715h-5.624v5.48H328.43V114.67Z" transform="translate(-328.43 -114.67)" fill="#fff"></path>
<path id="Path_101" data-name="Path 101" d="M439.29,161.293v-.018c0-3.048,1.805-4.935,4.518-4.935s4.536,1.878,4.536,4.935v.018c0,3.076-1.8,4.963-4.526,4.963s-4.526-1.9-4.526-4.963Zm7.049,0v-.018c0-2.086-1-3.293-2.531-3.293s-2.513,1.207-2.513,3.293v.018c0,2.114,1,3.321,2.531,3.321S446.339,163.4,446.339,161.293Z" transform="translate(-430.336 -152.974)" fill="#fff"></path>
<path id="Path_102" data-name="Path 102" d="M570.121,156.521h1.96v1.633h.045a2.245,2.245,0,0,1,2.2-1.814,3.763,3.763,0,0,1,.68.073v1.823a2.8,2.8,0,0,0-.88-.109,1.978,1.978,0,0,0-2.041,2.249v5.688h-1.96v-9.543Z" transform="translate(-550.598 -152.974)" fill="#fff"></path>
<path id="Path_103" data-name="Path 103" d="M645.6,156.521h1.96V158h.045a2.731,2.731,0,0,1,2.631-1.66,2.612,2.612,0,0,1,2.658,1.878h.045a3.122,3.122,0,0,1,2.976-1.878,2.955,2.955,0,0,1,3.121,3.166v6.559h-1.968v-6.087a1.725,1.725,0,0,0-1.823-1.96,1.945,1.945,0,0,0-1.968,2.077v5.969h-1.923v-6.232a1.689,1.689,0,0,0-1.805-1.814,2.006,2.006,0,0,0-1.987,2.15v5.9H645.6v-9.543Z" transform="translate(-619.982 -152.974)" fill="#fff"></path>
<path id="Path_104" data-name="Path 104" d="M830.139,163.343l-.009-.082h1.941l.018.09c.182.88.834,1.4,2.041,1.4s1.887-.489,1.887-1.261v-.009c0-.617-.345-.971-1.37-1.216l-1.561-.354c-1.814-.418-2.712-1.288-2.712-2.676v-.009c0-1.705,1.488-2.876,3.683-2.876s3.62,1.261,3.72,2.885l.009.109h-1.841l-.009-.064a1.689,1.689,0,0,0-1.878-1.415c-1.106,0-1.715.5-1.715,1.261v.009c0,.59.39.989,1.415,1.234l1.552.354c1.951.454,2.695,1.224,2.695,2.594v.009c0,1.741-1.633,2.939-3.883,2.939-2.386,0-3.782-1.179-3.982-2.922Z" transform="translate(-789.607 -152.983)" fill="#fff">
</path> -->
</svg>