<svg id="search-24px" xmlns="http://www.w3.org/2000/svg" width="24" height="24" viewBox="0 0 24 24">
  <path id="Path_16890" data-name="Path 16890" d="M0,0H24V24H0Z" fill="none"/>
  <path id="Path_84507" data-name="Path 84507" d="M12.532,19.033a6.873,6.873,0,0,0,3.8-1.143l3.85,3.858a1.316,1.316,0,0,0,.932.369,1.3,1.3,0,0,0,.905-2.2L18.192,16.08a6.86,6.86,0,0,0,1.257-3.964,6.917,6.917,0,1,0-6.917,6.917Zm0-1.846A5.071,5.071,0,1,1,17.6,12.116,5.09,5.09,0,0,1,12.532,17.188Z" transform="translate(-1.996 -1.659)"/>
</svg>
