<svg xmlns="http://www.w3.org/2000/svg" width="18" height="18" viewBox="0 0 18 18">
  <g id="Group_65759" data-name="Group 65759" transform="translate(-157 -267)">
    <rect id="Rectangle_24390" data-name="Rectangle 24390" width="18" height="18" transform="translate(157 267)" fill="none"/>
    <path id="Path_84508" data-name="Path 84508" d="M12.853,20.465A7.949,7.949,0,1,0,4.9,12.516,8,8,0,0,0,12.853,20.465Zm0-1.584a6.362,6.362,0,1,1,6.366-6.366A6.336,6.336,0,0,1,12.853,18.882Zm-3.875-5.4h3.867a.609.609,0,0,0,.623-.615V7.842a.615.615,0,1,0-1.23,0v4.413H8.978a.615.615,0,1,0,0,1.23Z" transform="translate(153.41 263.434)" fill="#adadad"/>
  </g>
</svg>
