<svg xmlns="http://www.w3.org/2000/svg" width="209" height="71" viewBox="0 0 209 71">
  <g id="Group_63886" data-name="Group 63886" transform="translate(-0.161 -0.101)">
    <rect id="Rectangle_24331" data-name="Rectangle 24331" width="209" height="71" transform="translate(0.161 0.101)" fill="none"/>
    <g id="e2e_Job_seeker_Light_bckground" data-name="e2e_Job seeker_Light bckground" transform="translate(9.866 13.018)">
      <g id="Layer_1" data-name="Layer 1" transform="translate(0)">
        <path id="Path_42591" data-name="Path 42591" d="M11.22,15.15c6.46,0,10.873,4.845,10.873,11.947v1.25H5.967a5.828,5.828,0,0,0,6.244,5,8.858,8.858,0,0,0,5.828-2.156l2.5,3.68a13.323,13.323,0,0,1-8.951,3.056A10.992,10.992,0,0,1,0,26.515,11.04,11.04,0,0,1,11.228,15.15ZM5.885,24.49H16.558a5,5,0,0,0-5.337-4.8,5.2,5.2,0,0,0-5.335,4.8Z" transform="translate(0.004 -2.683)" fill="#252d41"/>
        <path id="Path_42592" data-name="Path 42592" d="M30.347,33.287c9.417-6.926,12.173-9.332,12.173-12.138,0-2-1.817-3-3.755-3a8.21,8.21,0,0,0-6.145,2.657l-2.79-3.23a11.708,11.708,0,0,1,8.858-3.763c4.9,0,8.791,2.764,8.791,7.344,0,3.938-3.23,7.352-9.409,11.656h9.585v4.312H30.347Z" transform="translate(-4.994 -1.857)" fill="#252d41"/>
        <path id="Path_42593" data-name="Path 42593" d="M67.22,15.15c6.46,0,10.824,4.845,10.824,11.947v1.25H61.968a5.814,5.814,0,0,0,6.236,5,8.858,8.858,0,0,0,5.828-2.156l2.5,3.68a13.305,13.305,0,0,1-8.951,3.056A10.99,10.99,0,0,1,56,26.515,11.04,11.04,0,0,1,67.228,15.15Zm-5.345,9.342h10.7a5,5,0,0,0-5.346-4.8,5.212,5.212,0,0,0-5.345,4.8Z" transform="translate(-9.446 -2.683)" fill="#252d41"/>
        <path id="Path_42594" data-name="Path 42594" d="M124.43,7.184a3.414,3.414,0,1,1,3.414,3.414A3.414,3.414,0,0,1,124.43,7.184Zm.583,6.6h5.719V35.475h-5.7Z" transform="translate(-20.981 -0.116)" fill="#252d41"/>
        <path id="Path_42595" data-name="Path 42595" d="M138.78,15.7h5.7v2.963A9.286,9.286,0,0,1,151.4,15.2v5.57a7.709,7.709,0,0,0-1.573-.176,7.185,7.185,0,0,0-5.345,2.5v14.3h-5.7Z" transform="translate(-23.408 -2.214)" fill="#252d41"/>
        <path id="Path_42596" data-name="Path 42596" d="M157.5,7.184a3.414,3.414,0,1,1,3.414,3.414A3.414,3.414,0,0,1,157.5,7.184Zm.583,6.6h5.7V35.475h-5.7Z" transform="translate(-26.559 -0.116)" fill="#252d41"/>
        <path id="Path_42597" data-name="Path 42597" d="M186.485,24.306a3.525,3.525,0,0,0-4-4.037,6.177,6.177,0,0,0-4.938,2.564v14.6h-5.7V15.779h5.7V18.6a9.908,9.908,0,0,1,7.584-3.331,6.31,6.31,0,0,1,7.051,6.918V37.419h-5.7Z" transform="translate(-29.035 -2.283)" fill="#252d41"/>
        <path id="Path_42598" data-name="Path 42598" d="M204.921,38.821A8.6,8.6,0,0,0,211.7,41.51c2.739,0,5.969-1.211,5.969-5.479v-2.2a8.434,8.434,0,0,1-6.662,3.414c-5.436,0-9.567-3.821-9.567-11.048,0-7.094,4.088-11.048,9.567-11.048a8.326,8.326,0,0,1,6.662,3.332V15.691h5.753V35.9c0,8.258-6.377,10.283-11.723,10.283a13.059,13.059,0,0,1-9.342-3.23Zm12.746-16.127a6.185,6.185,0,0,0-4.887-2.5,5.384,5.384,0,0,0-5.487,5.977,5.378,5.378,0,0,0,5.487,5.969,6.3,6.3,0,0,0,4.887-2.5Z" transform="translate(-33.99 -1.336)" fill="#252d41"/>
        <g id="Group_21362" data-name="Group 21362" transform="translate(71.827)">
          <g id="Group_21358" data-name="Group 21358" transform="translate(0 0.157)">
            <path id="Path_42611" data-name="Path 42611" d="M100.222,20.626Zm-5.138,0H93.81V12.2h-7.4V38.251h7.4V36.4l-.067-12.181h4.911l-1.1-3.6Z" transform="translate(-86.41 -2.201)" fill="#de373a"/>
            <path id="Path_42610" data-name="Path 42610" d="M86.5.19h6.761c0,4.312-1.466,7.792-6.228,7.792H86.42Z" transform="translate(-86.412 -0.19)" fill="#de373a"/>
          </g>
          <g id="Group_21359" data-name="Group 21359" transform="translate(13.814)">
            <path id="Path_42599" data-name="Path 42599" d="M144.849,12.2V24.173h0V38.251h7.392V12.2Zm0,13.753V24.171h0Zm-1.482-5.329h-4.021l.991,3.613h4.479V20.624Z" transform="translate(-139.346 -2.042)" fill="#de373a"/>
            <path id="Path_42601" data-name="Path 42601" d="M109.69,7.952V7.227c0-5.519,3.331-7.227,7.443-7.227V7.843Z" transform="translate(-104.122 0)" fill="#de373a"/>
          </g>
        </g>
      </g>
    </g>
  </g>
</svg>
