<svg xmlns="http://www.w3.org/2000/svg" width="42.5" height="42.5" viewBox="0 0 42.5 42.5">
  <g id="Group" transform="translate(-69.938 97.576)">
    <g id="upload-cloud-2-line" transform="translate(70.438 -97.076)">
      <path id="Path_42802" data-name="Path 42802" d="M0,0H41.5V41.5H0Z" fill="none" stroke="#fafafa" stroke-width="1"/>
      <path id="Path_42803" data-name="Path 42803" d="M20.026,20.3l7.337,7.335-2.447,2.447-3.161-3.161v9.657H18.3V26.922l-3.161,3.164L12.689,27.64Zm0-18.3A12.106,12.106,0,0,1,32.05,12.71,9.51,9.51,0,0,1,30.4,31.358V27.875A6.052,6.052,0,1,0,28.48,15.926a8.646,8.646,0,1,0-16.906,0,6.052,6.052,0,0,0-2.234,11.9l.311.052v3.483A9.51,9.51,0,0,1,8,12.71,12.1,12.1,0,0,1,20.026,2Z" transform="translate(0.724 1.458)" fill="#8c8c8c" stroke="#fafafa" stroke-width="1"/>
    </g>
  </g>
</svg>
