<svg xmlns="http://www.w3.org/2000/svg" width="132" height="132" viewBox="0 0 132 132">
  <g id="Group_63848" data-name="Group 63848" transform="translate(-1.451 -1.451)" opacity="0.5">
    <circle id="Ellipse_1044" data-name="Ellipse 1044" cx="65" cy="65" r="65" transform="translate(2.451 2.451)" fill="none" stroke="#33363f" stroke-linecap="round" stroke-width="2"/>
    <path id="Path_84528" data-name="Path 84528" d="M7.881,23.143a31.99,31.99,0,0,1,12.052-6.132A54.376,54.376,0,0,1,34.839,15a54.38,54.38,0,0,1,14.906,2.011A31.994,31.994,0,0,1,61.8,23.143" transform="translate(32.612 72.087)" fill="none" stroke="#33363f" stroke-linecap="round" stroke-width="2"/>
    <path id="Path_84529" data-name="Path 84529" d="M17.652,9c1.573,0,2.359,0,2.834.8s.2,1.313-.363,2.336a6.545,6.545,0,0,1-11.488,0C8.076,11.115,7.8,10.6,8.272,9.8S9.534,9,11.107,9h6.545Z" transform="translate(33.437 38.816)" fill="#33363f"/>
    <path id="Path_84530" data-name="Path 84530" d="M17.652,9c1.573,0,2.359,0,2.834.8s.2,1.313-.363,2.336a6.545,6.545,0,0,1-11.488,0C8.076,11.115,7.8,10.6,8.272,9.8S9.534,9,11.107,9h6.545Z" transform="translate(33.437 38.816)" fill="none" stroke="#33363f" stroke-linecap="round" stroke-width="1"/>
    <path id="Path_84531" data-name="Path 84531" d="M23.652,9c1.573,0,2.359,0,2.835.8s.2,1.313-.363,2.336a6.546,6.546,0,0,1-11.488,0c-.559-1.023-.838-1.535-.363-2.337S15.534,9,17.107,9h6.545Z" transform="translate(66.707 38.816)" fill="#33363f"/>
    <path id="Path_84532" data-name="Path 84532" d="M23.652,9c1.573,0,2.359,0,2.835.8s.2,1.313-.363,2.336a6.546,6.546,0,0,1-11.488,0c-.559-1.023-.838-1.535-.363-2.337S15.534,9,17.107,9h6.545Z" transform="translate(66.707 38.816)" fill="none" stroke="#33363f" stroke-linecap="round" stroke-width="1"/>
  </g>
</svg>
